<svg width="29" height="29" viewBox="0 0 29 29" fill="none" xmlns="http://www.w3.org/2000/svg">
<path d="M27.3889 0H1.61111C1.18382 0 0.774025 0.169742 0.471883 0.471883C0.169742 0.774025 0 1.18382 0 1.61111V27.3889C0 27.8162 0.169742 28.226 0.471883 28.5281C0.774025 28.8303 1.18382 29 1.61111 29H15.4908V17.7867H11.7241V13.3964H15.4908V10.1742C15.4908 6.42833 17.7786 4.38706 21.1297 4.38706C22.2559 4.38383 23.3837 4.44183 24.505 4.55944V8.45833H22.1931C20.3757 8.45833 20.0213 9.32511 20.0213 10.5931V13.3883H24.3664L23.8026 17.7786H20.0197V29H27.3889C27.8162 29 28.226 28.8303 28.5281 28.5281C28.8303 28.226 29 27.8162 29 27.3889V1.61111C29 1.18382 28.8303 0.774025 28.5281 0.471883C28.226 0.169742 27.8162 0 27.3889 0V0Z" fill="white"/>
</svg>
