<svg width="29" height="29" viewBox="0 0 29 29" fill="none" xmlns="http://www.w3.org/2000/svg">
<path d="M26.2812 0H2.71875C1.22344 0 0 1.22344 0 2.71875V26.2812C0 27.7766 1.22344 29 2.71875 29H26.2812C27.7766 29 29 27.7766 29 26.2812V2.71875C29 1.22344 27.7766 0 26.2812 0ZM10.875 23.5625H7.25V10.875H10.875V23.5625ZM9.0625 9.0625C8.5818 9.0625 8.12078 8.87154 7.78087 8.53163C7.44096 8.19172 7.25 7.7307 7.25 7.25C7.25 6.7693 7.44096 6.30828 7.78087 5.96837C8.12078 5.62846 8.5818 5.4375 9.0625 5.4375C9.5432 5.4375 10.0042 5.62846 10.3441 5.96837C10.684 6.30828 10.875 6.7693 10.875 7.25C10.875 7.7307 10.684 8.19172 10.3441 8.53163C10.0042 8.87154 9.5432 9.0625 9.0625 9.0625ZM23.5625 23.5625H19.9375V16.3125C19.9375 15.8318 19.7465 15.3708 19.4066 15.0309C19.0667 14.691 18.6057 14.5 18.125 14.5C17.6443 14.5 17.1833 14.691 16.8434 15.0309C16.5035 15.3708 16.3125 15.8318 16.3125 16.3125V23.5625H12.6875V10.875H16.3125V13.1243C17.0593 12.0984 18.2048 10.875 19.4844 10.875C21.7391 10.875 23.5625 12.9032 23.5625 15.4062V23.5625Z" fill="white"/>
</svg>
